<mxfile host="app.diagrams.net" agent="Mozilla/5.0 (Windows NT 10.0; Win64; x64) AppleWebKit/537.36 (KHTML, like Gecko) Chrome/132.0.0.0 Safari/537.36" version="26.0.10">
  <diagram name="Page-1" id="QkXmqH3S3L_Y9p5KYP0h">
    <mxGraphModel dx="2345" dy="1783" grid="1" gridSize="10" guides="1" tooltips="1" connect="1" arrows="1" fold="1" page="1" pageScale="1" pageWidth="827" pageHeight="1169" math="0" shadow="0">
      <root>
        <mxCell id="0" />
        <mxCell id="1" parent="0" />
        <mxCell id="PBj9N_gs_0onL4td7x_k-99" value="" style="rounded=0;whiteSpace=wrap;html=1;fillColor=light-dark(#FFB570,var(--ge-dark-color, #121212));" vertex="1" parent="1">
          <mxGeometry x="-160" y="149.5" width="1080" height="40" as="geometry" />
        </mxCell>
        <mxCell id="PBj9N_gs_0onL4td7x_k-97" value="" style="rounded=0;whiteSpace=wrap;html=1;fillColor=light-dark(#33FF33,var(--ge-dark-color, #121212));" vertex="1" parent="1">
          <mxGeometry x="-160" y="200" width="1080" height="40" as="geometry" />
        </mxCell>
        <mxCell id="PBj9N_gs_0onL4td7x_k-16" style="edgeStyle=orthogonalEdgeStyle;rounded=0;orthogonalLoop=1;jettySize=auto;html=1;exitX=0.5;exitY=1;exitDx=0;exitDy=0;entryX=0.5;entryY=0;entryDx=0;entryDy=0;" edge="1" parent="1" source="2" target="PBj9N_gs_0onL4td7x_k-14">
          <mxGeometry relative="1" as="geometry" />
        </mxCell>
        <mxCell id="PBj9N_gs_0onL4td7x_k-93" style="edgeStyle=orthogonalEdgeStyle;rounded=0;orthogonalLoop=1;jettySize=auto;html=1;exitX=1;exitY=0.5;exitDx=0;exitDy=0;entryX=0.5;entryY=0;entryDx=0;entryDy=0;curved=1;" edge="1" parent="1" source="2" target="PBj9N_gs_0onL4td7x_k-69">
          <mxGeometry relative="1" as="geometry">
            <Array as="points">
              <mxPoint x="407" y="-20" />
              <mxPoint x="410" y="-20" />
              <mxPoint x="410" y="60" />
              <mxPoint x="745" y="60" />
            </Array>
          </mxGeometry>
        </mxCell>
        <mxCell id="2" value="A" style="ellipse;aspect=fixed;strokeWidth=2;whiteSpace=wrap;" parent="1" vertex="1">
          <mxGeometry x="383" y="-40" width="24" height="24" as="geometry" />
        </mxCell>
        <mxCell id="PBj9N_gs_0onL4td7x_k-36" style="edgeStyle=orthogonalEdgeStyle;rounded=0;orthogonalLoop=1;jettySize=auto;html=1;exitX=0.5;exitY=1;exitDx=0;exitDy=0;entryX=0.5;entryY=0;entryDx=0;entryDy=0;" edge="1" parent="1" source="3" target="PBj9N_gs_0onL4td7x_k-15">
          <mxGeometry relative="1" as="geometry" />
        </mxCell>
        <mxCell id="3" value="B" style="ellipse;aspect=fixed;strokeWidth=2;whiteSpace=wrap;" parent="1" vertex="1">
          <mxGeometry x="33" y="90" width="24" height="24" as="geometry" />
        </mxCell>
        <mxCell id="PBj9N_gs_0onL4td7x_k-22" style="edgeStyle=orthogonalEdgeStyle;rounded=0;orthogonalLoop=1;jettySize=auto;html=1;entryX=0.5;entryY=0;entryDx=0;entryDy=0;" edge="1" parent="1" source="5" target="PBj9N_gs_0onL4td7x_k-19">
          <mxGeometry relative="1" as="geometry" />
        </mxCell>
        <mxCell id="PBj9N_gs_0onL4td7x_k-24" style="rounded=0;orthogonalLoop=1;jettySize=auto;html=1;exitX=0.5;exitY=1;exitDx=0;exitDy=0;entryX=0.5;entryY=0;entryDx=0;entryDy=0;edgeStyle=orthogonalEdgeStyle;curved=1;" edge="1" parent="1" source="5" target="PBj9N_gs_0onL4td7x_k-17">
          <mxGeometry relative="1" as="geometry">
            <Array as="points">
              <mxPoint x="-68" y="190" />
              <mxPoint x="-108" y="190" />
            </Array>
          </mxGeometry>
        </mxCell>
        <mxCell id="PBj9N_gs_0onL4td7x_k-25" style="edgeStyle=orthogonalEdgeStyle;rounded=0;orthogonalLoop=1;jettySize=auto;html=1;exitX=0.5;exitY=1;exitDx=0;exitDy=0;entryX=0.5;entryY=0;entryDx=0;entryDy=0;curved=1;" edge="1" parent="1" source="5" target="PBj9N_gs_0onL4td7x_k-18">
          <mxGeometry relative="1" as="geometry">
            <Array as="points">
              <mxPoint x="-68" y="190" />
              <mxPoint x="-28" y="190" />
            </Array>
          </mxGeometry>
        </mxCell>
        <mxCell id="5" value="C" style="ellipse;aspect=fixed;strokeWidth=2;whiteSpace=wrap;" parent="1" vertex="1">
          <mxGeometry x="-80" y="157" width="25" height="25" as="geometry" />
        </mxCell>
        <mxCell id="9" value="" style="curved=1;startArrow=none;endArrow=block;exitX=-0.01;exitY=0.77;entryX=0.51;entryY=-0.01;" parent="1" source="2" target="3" edge="1">
          <mxGeometry relative="1" as="geometry">
            <Array as="points">
              <mxPoint x="390" y="50" />
              <mxPoint x="340" y="40" />
              <mxPoint x="220" y="50" />
            </Array>
          </mxGeometry>
        </mxCell>
        <mxCell id="11" value="" style="curved=1;startArrow=none;endArrow=block;exitX=0;exitY=0.5;entryX=0.49;entryY=0.01;exitDx=0;exitDy=0;" parent="1" source="3" target="5" edge="1">
          <mxGeometry relative="1" as="geometry">
            <Array as="points">
              <mxPoint x="-30" y="110" />
              <mxPoint x="-70" y="130" />
            </Array>
          </mxGeometry>
        </mxCell>
        <mxCell id="PBj9N_gs_0onL4td7x_k-65" style="edgeStyle=orthogonalEdgeStyle;rounded=0;orthogonalLoop=1;jettySize=auto;html=1;exitX=0;exitY=0.5;exitDx=0;exitDy=0;entryX=0.5;entryY=0;entryDx=0;entryDy=0;curved=1;" edge="1" parent="1" source="PBj9N_gs_0onL4td7x_k-14" target="PBj9N_gs_0onL4td7x_k-47">
          <mxGeometry relative="1" as="geometry" />
        </mxCell>
        <mxCell id="PBj9N_gs_0onL4td7x_k-66" style="edgeStyle=orthogonalEdgeStyle;rounded=0;orthogonalLoop=1;jettySize=auto;html=1;exitX=0.5;exitY=1;exitDx=0;exitDy=0;entryX=0.5;entryY=0;entryDx=0;entryDy=0;" edge="1" parent="1" source="PBj9N_gs_0onL4td7x_k-14" target="PBj9N_gs_0onL4td7x_k-51">
          <mxGeometry relative="1" as="geometry" />
        </mxCell>
        <mxCell id="PBj9N_gs_0onL4td7x_k-67" style="edgeStyle=orthogonalEdgeStyle;rounded=0;orthogonalLoop=1;jettySize=auto;html=1;exitX=1;exitY=0.5;exitDx=0;exitDy=0;entryX=0.5;entryY=0;entryDx=0;entryDy=0;curved=1;" edge="1" parent="1" source="PBj9N_gs_0onL4td7x_k-14" target="PBj9N_gs_0onL4td7x_k-64">
          <mxGeometry relative="1" as="geometry" />
        </mxCell>
        <mxCell id="PBj9N_gs_0onL4td7x_k-14" value="O" style="ellipse;aspect=fixed;strokeWidth=2;whiteSpace=wrap;" vertex="1" parent="1">
          <mxGeometry x="383" y="90" width="24" height="24" as="geometry" />
        </mxCell>
        <mxCell id="PBj9N_gs_0onL4td7x_k-37" style="edgeStyle=orthogonalEdgeStyle;rounded=0;orthogonalLoop=1;jettySize=auto;html=1;exitX=0.5;exitY=1;exitDx=0;exitDy=0;curved=1;" edge="1" parent="1" source="PBj9N_gs_0onL4td7x_k-15" target="PBj9N_gs_0onL4td7x_k-26">
          <mxGeometry relative="1" as="geometry">
            <Array as="points">
              <mxPoint x="45" y="190" />
              <mxPoint x="13" y="190" />
            </Array>
          </mxGeometry>
        </mxCell>
        <mxCell id="PBj9N_gs_0onL4td7x_k-38" style="edgeStyle=orthogonalEdgeStyle;rounded=0;orthogonalLoop=1;jettySize=auto;html=1;exitX=0.5;exitY=1;exitDx=0;exitDy=0;" edge="1" parent="1" source="PBj9N_gs_0onL4td7x_k-15" target="PBj9N_gs_0onL4td7x_k-27">
          <mxGeometry relative="1" as="geometry" />
        </mxCell>
        <mxCell id="PBj9N_gs_0onL4td7x_k-39" style="edgeStyle=orthogonalEdgeStyle;rounded=0;orthogonalLoop=1;jettySize=auto;html=1;exitX=0.5;exitY=1;exitDx=0;exitDy=0;curved=1;" edge="1" parent="1" source="PBj9N_gs_0onL4td7x_k-15" target="PBj9N_gs_0onL4td7x_k-28">
          <mxGeometry relative="1" as="geometry">
            <Array as="points">
              <mxPoint x="45" y="190" />
              <mxPoint x="83" y="190" />
            </Array>
          </mxGeometry>
        </mxCell>
        <mxCell id="PBj9N_gs_0onL4td7x_k-15" value="G" style="ellipse;aspect=fixed;strokeWidth=2;whiteSpace=wrap;" vertex="1" parent="1">
          <mxGeometry x="32" y="157" width="25" height="25" as="geometry" />
        </mxCell>
        <mxCell id="PBj9N_gs_0onL4td7x_k-17" value="D" style="ellipse;aspect=fixed;strokeWidth=2;whiteSpace=wrap;" vertex="1" parent="1">
          <mxGeometry x="-120" y="210" width="25" height="25" as="geometry" />
        </mxCell>
        <mxCell id="PBj9N_gs_0onL4td7x_k-18" value="F" style="ellipse;aspect=fixed;strokeWidth=2;whiteSpace=wrap;" vertex="1" parent="1">
          <mxGeometry x="-40" y="210" width="25" height="25" as="geometry" />
        </mxCell>
        <mxCell id="PBj9N_gs_0onL4td7x_k-19" value="E" style="ellipse;aspect=fixed;strokeWidth=2;whiteSpace=wrap;" vertex="1" parent="1">
          <mxGeometry x="-80" y="210" width="25" height="25" as="geometry" />
        </mxCell>
        <mxCell id="PBj9N_gs_0onL4td7x_k-26" value="H" style="ellipse;aspect=fixed;strokeWidth=2;whiteSpace=wrap;" vertex="1" parent="1">
          <mxGeometry y="210" width="25" height="25" as="geometry" />
        </mxCell>
        <mxCell id="PBj9N_gs_0onL4td7x_k-27" value="I" style="ellipse;aspect=fixed;strokeWidth=2;whiteSpace=wrap;" vertex="1" parent="1">
          <mxGeometry x="32" y="210" width="25" height="25" as="geometry" />
        </mxCell>
        <mxCell id="PBj9N_gs_0onL4td7x_k-28" value="J" style="ellipse;aspect=fixed;strokeWidth=2;whiteSpace=wrap;" vertex="1" parent="1">
          <mxGeometry x="70" y="210" width="25" height="25" as="geometry" />
        </mxCell>
        <mxCell id="PBj9N_gs_0onL4td7x_k-29" value="N" style="ellipse;aspect=fixed;strokeWidth=2;whiteSpace=wrap;" vertex="1" parent="1">
          <mxGeometry x="184" y="210" width="25" height="25" as="geometry" />
        </mxCell>
        <mxCell id="PBj9N_gs_0onL4td7x_k-30" value="M" style="ellipse;aspect=fixed;strokeWidth=2;whiteSpace=wrap;" vertex="1" parent="1">
          <mxGeometry x="150" y="210" width="25" height="25" as="geometry" />
        </mxCell>
        <mxCell id="PBj9N_gs_0onL4td7x_k-31" value="L" style="ellipse;aspect=fixed;strokeWidth=2;whiteSpace=wrap;" vertex="1" parent="1">
          <mxGeometry x="115" y="210" width="25" height="25" as="geometry" />
        </mxCell>
        <mxCell id="PBj9N_gs_0onL4td7x_k-40" style="edgeStyle=orthogonalEdgeStyle;rounded=0;orthogonalLoop=1;jettySize=auto;html=1;exitX=0.5;exitY=1;exitDx=0;exitDy=0;curved=1;" edge="1" parent="1" source="PBj9N_gs_0onL4td7x_k-34" target="PBj9N_gs_0onL4td7x_k-31">
          <mxGeometry relative="1" as="geometry">
            <Array as="points">
              <mxPoint x="163" y="190" />
              <mxPoint x="127" y="190" />
            </Array>
          </mxGeometry>
        </mxCell>
        <mxCell id="PBj9N_gs_0onL4td7x_k-41" style="edgeStyle=orthogonalEdgeStyle;rounded=0;orthogonalLoop=1;jettySize=auto;html=1;exitX=0.5;exitY=1;exitDx=0;exitDy=0;" edge="1" parent="1" source="PBj9N_gs_0onL4td7x_k-34" target="PBj9N_gs_0onL4td7x_k-30">
          <mxGeometry relative="1" as="geometry" />
        </mxCell>
        <mxCell id="PBj9N_gs_0onL4td7x_k-42" style="edgeStyle=orthogonalEdgeStyle;rounded=0;orthogonalLoop=1;jettySize=auto;html=1;exitX=0.5;exitY=1;exitDx=0;exitDy=0;entryX=0.5;entryY=0;entryDx=0;entryDy=0;curved=1;" edge="1" parent="1" source="PBj9N_gs_0onL4td7x_k-34" target="PBj9N_gs_0onL4td7x_k-29">
          <mxGeometry relative="1" as="geometry">
            <Array as="points">
              <mxPoint x="163" y="190" />
              <mxPoint x="197" y="190" />
            </Array>
          </mxGeometry>
        </mxCell>
        <mxCell id="PBj9N_gs_0onL4td7x_k-34" value="K" style="ellipse;aspect=fixed;strokeWidth=2;whiteSpace=wrap;" vertex="1" parent="1">
          <mxGeometry x="150" y="157" width="25" height="25" as="geometry" />
        </mxCell>
        <mxCell id="PBj9N_gs_0onL4td7x_k-43" style="edgeStyle=orthogonalEdgeStyle;rounded=0;orthogonalLoop=1;jettySize=auto;html=1;exitX=1;exitY=0.5;exitDx=0;exitDy=0;entryX=0.5;entryY=0;entryDx=0;entryDy=0;curved=1;" edge="1" parent="1" source="3" target="PBj9N_gs_0onL4td7x_k-34">
          <mxGeometry relative="1" as="geometry" />
        </mxCell>
        <mxCell id="PBj9N_gs_0onL4td7x_k-44" style="edgeStyle=orthogonalEdgeStyle;rounded=0;orthogonalLoop=1;jettySize=auto;html=1;entryX=0.5;entryY=0;entryDx=0;entryDy=0;" edge="1" parent="1" source="PBj9N_gs_0onL4td7x_k-47" target="PBj9N_gs_0onL4td7x_k-54">
          <mxGeometry relative="1" as="geometry" />
        </mxCell>
        <mxCell id="PBj9N_gs_0onL4td7x_k-45" style="rounded=0;orthogonalLoop=1;jettySize=auto;html=1;exitX=0.5;exitY=1;exitDx=0;exitDy=0;entryX=0.5;entryY=0;entryDx=0;entryDy=0;edgeStyle=orthogonalEdgeStyle;curved=1;" edge="1" parent="1" source="PBj9N_gs_0onL4td7x_k-47" target="PBj9N_gs_0onL4td7x_k-52">
          <mxGeometry relative="1" as="geometry">
            <Array as="points">
              <mxPoint x="282" y="190" />
              <mxPoint x="242" y="190" />
            </Array>
          </mxGeometry>
        </mxCell>
        <mxCell id="PBj9N_gs_0onL4td7x_k-46" style="edgeStyle=orthogonalEdgeStyle;rounded=0;orthogonalLoop=1;jettySize=auto;html=1;exitX=0.5;exitY=1;exitDx=0;exitDy=0;entryX=0.5;entryY=0;entryDx=0;entryDy=0;curved=1;" edge="1" parent="1" source="PBj9N_gs_0onL4td7x_k-47" target="PBj9N_gs_0onL4td7x_k-53">
          <mxGeometry relative="1" as="geometry">
            <Array as="points">
              <mxPoint x="282" y="190" />
              <mxPoint x="322" y="190" />
            </Array>
          </mxGeometry>
        </mxCell>
        <mxCell id="PBj9N_gs_0onL4td7x_k-47" value="P" style="ellipse;aspect=fixed;strokeWidth=2;whiteSpace=wrap;" vertex="1" parent="1">
          <mxGeometry x="270" y="157" width="25" height="25" as="geometry" />
        </mxCell>
        <mxCell id="PBj9N_gs_0onL4td7x_k-48" style="edgeStyle=orthogonalEdgeStyle;rounded=0;orthogonalLoop=1;jettySize=auto;html=1;exitX=0.5;exitY=1;exitDx=0;exitDy=0;curved=1;" edge="1" parent="1" source="PBj9N_gs_0onL4td7x_k-51" target="PBj9N_gs_0onL4td7x_k-55">
          <mxGeometry relative="1" as="geometry">
            <Array as="points">
              <mxPoint x="395" y="190" />
              <mxPoint x="363" y="190" />
            </Array>
          </mxGeometry>
        </mxCell>
        <mxCell id="PBj9N_gs_0onL4td7x_k-49" style="edgeStyle=orthogonalEdgeStyle;rounded=0;orthogonalLoop=1;jettySize=auto;html=1;exitX=0.5;exitY=1;exitDx=0;exitDy=0;" edge="1" parent="1" source="PBj9N_gs_0onL4td7x_k-51" target="PBj9N_gs_0onL4td7x_k-56">
          <mxGeometry relative="1" as="geometry" />
        </mxCell>
        <mxCell id="PBj9N_gs_0onL4td7x_k-50" style="edgeStyle=orthogonalEdgeStyle;rounded=0;orthogonalLoop=1;jettySize=auto;html=1;exitX=0.5;exitY=1;exitDx=0;exitDy=0;curved=1;" edge="1" parent="1" source="PBj9N_gs_0onL4td7x_k-51" target="PBj9N_gs_0onL4td7x_k-57">
          <mxGeometry relative="1" as="geometry">
            <Array as="points">
              <mxPoint x="395" y="190" />
              <mxPoint x="433" y="190" />
            </Array>
          </mxGeometry>
        </mxCell>
        <mxCell id="PBj9N_gs_0onL4td7x_k-51" value="T" style="ellipse;aspect=fixed;strokeWidth=2;whiteSpace=wrap;" vertex="1" parent="1">
          <mxGeometry x="382" y="157" width="25" height="25" as="geometry" />
        </mxCell>
        <mxCell id="PBj9N_gs_0onL4td7x_k-52" value="Q" style="ellipse;aspect=fixed;strokeWidth=2;whiteSpace=wrap;" vertex="1" parent="1">
          <mxGeometry x="230" y="210" width="25" height="25" as="geometry" />
        </mxCell>
        <mxCell id="PBj9N_gs_0onL4td7x_k-53" value="S" style="ellipse;aspect=fixed;strokeWidth=2;whiteSpace=wrap;" vertex="1" parent="1">
          <mxGeometry x="310" y="210" width="25" height="25" as="geometry" />
        </mxCell>
        <mxCell id="PBj9N_gs_0onL4td7x_k-54" value="R" style="ellipse;aspect=fixed;strokeWidth=2;whiteSpace=wrap;" vertex="1" parent="1">
          <mxGeometry x="270" y="210" width="25" height="25" as="geometry" />
        </mxCell>
        <mxCell id="PBj9N_gs_0onL4td7x_k-55" value="U" style="ellipse;aspect=fixed;strokeWidth=2;whiteSpace=wrap;" vertex="1" parent="1">
          <mxGeometry x="350" y="210" width="25" height="25" as="geometry" />
        </mxCell>
        <mxCell id="PBj9N_gs_0onL4td7x_k-56" value="V" style="ellipse;aspect=fixed;strokeWidth=2;whiteSpace=wrap;" vertex="1" parent="1">
          <mxGeometry x="382" y="210" width="25" height="25" as="geometry" />
        </mxCell>
        <mxCell id="PBj9N_gs_0onL4td7x_k-57" value="W" style="ellipse;aspect=fixed;strokeWidth=2;whiteSpace=wrap;" vertex="1" parent="1">
          <mxGeometry x="420" y="210" width="25" height="25" as="geometry" />
        </mxCell>
        <mxCell id="PBj9N_gs_0onL4td7x_k-58" value="1" style="ellipse;aspect=fixed;strokeWidth=2;whiteSpace=wrap;" vertex="1" parent="1">
          <mxGeometry x="534" y="210" width="25" height="25" as="geometry" />
        </mxCell>
        <mxCell id="PBj9N_gs_0onL4td7x_k-59" value="Z" style="ellipse;aspect=fixed;strokeWidth=2;whiteSpace=wrap;" vertex="1" parent="1">
          <mxGeometry x="500" y="210" width="25" height="25" as="geometry" />
        </mxCell>
        <mxCell id="PBj9N_gs_0onL4td7x_k-60" value="Y" style="ellipse;aspect=fixed;strokeWidth=2;whiteSpace=wrap;" vertex="1" parent="1">
          <mxGeometry x="465" y="210" width="25" height="25" as="geometry" />
        </mxCell>
        <mxCell id="PBj9N_gs_0onL4td7x_k-61" style="edgeStyle=orthogonalEdgeStyle;rounded=0;orthogonalLoop=1;jettySize=auto;html=1;exitX=0.5;exitY=1;exitDx=0;exitDy=0;curved=1;" edge="1" parent="1" source="PBj9N_gs_0onL4td7x_k-64" target="PBj9N_gs_0onL4td7x_k-60">
          <mxGeometry relative="1" as="geometry">
            <Array as="points">
              <mxPoint x="513" y="190" />
              <mxPoint x="477" y="190" />
            </Array>
          </mxGeometry>
        </mxCell>
        <mxCell id="PBj9N_gs_0onL4td7x_k-62" style="edgeStyle=orthogonalEdgeStyle;rounded=0;orthogonalLoop=1;jettySize=auto;html=1;exitX=0.5;exitY=1;exitDx=0;exitDy=0;" edge="1" parent="1" source="PBj9N_gs_0onL4td7x_k-64" target="PBj9N_gs_0onL4td7x_k-59">
          <mxGeometry relative="1" as="geometry" />
        </mxCell>
        <mxCell id="PBj9N_gs_0onL4td7x_k-63" style="edgeStyle=orthogonalEdgeStyle;rounded=0;orthogonalLoop=1;jettySize=auto;html=1;exitX=0.5;exitY=1;exitDx=0;exitDy=0;entryX=0.5;entryY=0;entryDx=0;entryDy=0;curved=1;" edge="1" parent="1" source="PBj9N_gs_0onL4td7x_k-64" target="PBj9N_gs_0onL4td7x_k-58">
          <mxGeometry relative="1" as="geometry">
            <Array as="points">
              <mxPoint x="513" y="190" />
              <mxPoint x="547" y="190" />
            </Array>
          </mxGeometry>
        </mxCell>
        <mxCell id="PBj9N_gs_0onL4td7x_k-64" value="X" style="ellipse;aspect=fixed;strokeWidth=2;whiteSpace=wrap;" vertex="1" parent="1">
          <mxGeometry x="500" y="157" width="25" height="25" as="geometry" />
        </mxCell>
        <mxCell id="PBj9N_gs_0onL4td7x_k-68" style="edgeStyle=orthogonalEdgeStyle;rounded=0;orthogonalLoop=1;jettySize=auto;html=1;exitX=0.5;exitY=1;exitDx=0;exitDy=0;entryX=0.5;entryY=0;entryDx=0;entryDy=0;" edge="1" parent="1" source="PBj9N_gs_0onL4td7x_k-69" target="PBj9N_gs_0onL4td7x_k-78">
          <mxGeometry relative="1" as="geometry" />
        </mxCell>
        <mxCell id="PBj9N_gs_0onL4td7x_k-69" value="2" style="ellipse;aspect=fixed;strokeWidth=2;whiteSpace=wrap;" vertex="1" parent="1">
          <mxGeometry x="733" y="90" width="24" height="24" as="geometry" />
        </mxCell>
        <mxCell id="PBj9N_gs_0onL4td7x_k-70" style="edgeStyle=orthogonalEdgeStyle;rounded=0;orthogonalLoop=1;jettySize=auto;html=1;entryX=0.5;entryY=0;entryDx=0;entryDy=0;" edge="1" parent="1" source="PBj9N_gs_0onL4td7x_k-73" target="PBj9N_gs_0onL4td7x_k-81">
          <mxGeometry relative="1" as="geometry" />
        </mxCell>
        <mxCell id="PBj9N_gs_0onL4td7x_k-71" style="rounded=0;orthogonalLoop=1;jettySize=auto;html=1;exitX=0.5;exitY=1;exitDx=0;exitDy=0;entryX=0.5;entryY=0;entryDx=0;entryDy=0;edgeStyle=orthogonalEdgeStyle;curved=1;" edge="1" parent="1" source="PBj9N_gs_0onL4td7x_k-73" target="PBj9N_gs_0onL4td7x_k-79">
          <mxGeometry relative="1" as="geometry">
            <Array as="points">
              <mxPoint x="632" y="190" />
              <mxPoint x="592" y="190" />
            </Array>
          </mxGeometry>
        </mxCell>
        <mxCell id="PBj9N_gs_0onL4td7x_k-72" style="edgeStyle=orthogonalEdgeStyle;rounded=0;orthogonalLoop=1;jettySize=auto;html=1;exitX=0.5;exitY=1;exitDx=0;exitDy=0;entryX=0.5;entryY=0;entryDx=0;entryDy=0;curved=1;" edge="1" parent="1" source="PBj9N_gs_0onL4td7x_k-73" target="PBj9N_gs_0onL4td7x_k-80">
          <mxGeometry relative="1" as="geometry">
            <Array as="points">
              <mxPoint x="632" y="190" />
              <mxPoint x="672" y="190" />
            </Array>
          </mxGeometry>
        </mxCell>
        <mxCell id="PBj9N_gs_0onL4td7x_k-73" value="3" style="ellipse;aspect=fixed;strokeWidth=2;whiteSpace=wrap;" vertex="1" parent="1">
          <mxGeometry x="620" y="157" width="25" height="25" as="geometry" />
        </mxCell>
        <mxCell id="PBj9N_gs_0onL4td7x_k-74" value="" style="curved=1;startArrow=none;endArrow=block;exitX=0;exitY=0.5;entryX=0.49;entryY=0.01;exitDx=0;exitDy=0;" edge="1" parent="1" source="PBj9N_gs_0onL4td7x_k-69" target="PBj9N_gs_0onL4td7x_k-73">
          <mxGeometry relative="1" as="geometry">
            <Array as="points">
              <mxPoint x="670" y="110" />
              <mxPoint x="630" y="130" />
            </Array>
          </mxGeometry>
        </mxCell>
        <mxCell id="PBj9N_gs_0onL4td7x_k-75" style="edgeStyle=orthogonalEdgeStyle;rounded=0;orthogonalLoop=1;jettySize=auto;html=1;exitX=0.5;exitY=1;exitDx=0;exitDy=0;curved=1;" edge="1" parent="1" source="PBj9N_gs_0onL4td7x_k-78" target="PBj9N_gs_0onL4td7x_k-82">
          <mxGeometry relative="1" as="geometry">
            <Array as="points">
              <mxPoint x="745" y="190" />
              <mxPoint x="713" y="190" />
            </Array>
          </mxGeometry>
        </mxCell>
        <mxCell id="PBj9N_gs_0onL4td7x_k-76" style="edgeStyle=orthogonalEdgeStyle;rounded=0;orthogonalLoop=1;jettySize=auto;html=1;exitX=0.5;exitY=1;exitDx=0;exitDy=0;" edge="1" parent="1" source="PBj9N_gs_0onL4td7x_k-78" target="PBj9N_gs_0onL4td7x_k-83">
          <mxGeometry relative="1" as="geometry" />
        </mxCell>
        <mxCell id="PBj9N_gs_0onL4td7x_k-77" style="edgeStyle=orthogonalEdgeStyle;rounded=0;orthogonalLoop=1;jettySize=auto;html=1;exitX=0.5;exitY=1;exitDx=0;exitDy=0;curved=1;" edge="1" parent="1" source="PBj9N_gs_0onL4td7x_k-78" target="PBj9N_gs_0onL4td7x_k-84">
          <mxGeometry relative="1" as="geometry">
            <Array as="points">
              <mxPoint x="745" y="190" />
              <mxPoint x="783" y="190" />
            </Array>
          </mxGeometry>
        </mxCell>
        <mxCell id="PBj9N_gs_0onL4td7x_k-78" value="7" style="ellipse;aspect=fixed;strokeWidth=2;whiteSpace=wrap;" vertex="1" parent="1">
          <mxGeometry x="732" y="157" width="25" height="25" as="geometry" />
        </mxCell>
        <mxCell id="PBj9N_gs_0onL4td7x_k-79" value="4" style="ellipse;aspect=fixed;strokeWidth=2;whiteSpace=wrap;" vertex="1" parent="1">
          <mxGeometry x="580" y="210" width="25" height="25" as="geometry" />
        </mxCell>
        <mxCell id="PBj9N_gs_0onL4td7x_k-80" value="6" style="ellipse;aspect=fixed;strokeWidth=2;whiteSpace=wrap;" vertex="1" parent="1">
          <mxGeometry x="660" y="210" width="25" height="25" as="geometry" />
        </mxCell>
        <mxCell id="PBj9N_gs_0onL4td7x_k-81" value="5" style="ellipse;aspect=fixed;strokeWidth=2;whiteSpace=wrap;" vertex="1" parent="1">
          <mxGeometry x="620" y="210" width="25" height="25" as="geometry" />
        </mxCell>
        <mxCell id="PBj9N_gs_0onL4td7x_k-82" value="8" style="ellipse;aspect=fixed;strokeWidth=2;whiteSpace=wrap;" vertex="1" parent="1">
          <mxGeometry x="700" y="210" width="25" height="25" as="geometry" />
        </mxCell>
        <mxCell id="PBj9N_gs_0onL4td7x_k-83" value="9" style="ellipse;aspect=fixed;strokeWidth=2;whiteSpace=wrap;" vertex="1" parent="1">
          <mxGeometry x="732" y="210" width="25" height="25" as="geometry" />
        </mxCell>
        <mxCell id="PBj9N_gs_0onL4td7x_k-84" value="10" style="ellipse;aspect=fixed;strokeWidth=2;whiteSpace=wrap;" vertex="1" parent="1">
          <mxGeometry x="770" y="210" width="25" height="25" as="geometry" />
        </mxCell>
        <mxCell id="PBj9N_gs_0onL4td7x_k-85" value="14" style="ellipse;aspect=fixed;strokeWidth=2;whiteSpace=wrap;" vertex="1" parent="1">
          <mxGeometry x="884" y="210" width="25" height="25" as="geometry" />
        </mxCell>
        <mxCell id="PBj9N_gs_0onL4td7x_k-86" value="13" style="ellipse;aspect=fixed;strokeWidth=2;whiteSpace=wrap;" vertex="1" parent="1">
          <mxGeometry x="850" y="210" width="25" height="25" as="geometry" />
        </mxCell>
        <mxCell id="PBj9N_gs_0onL4td7x_k-87" value="12" style="ellipse;aspect=fixed;strokeWidth=2;whiteSpace=wrap;" vertex="1" parent="1">
          <mxGeometry x="815" y="210" width="25" height="25" as="geometry" />
        </mxCell>
        <mxCell id="PBj9N_gs_0onL4td7x_k-88" style="edgeStyle=orthogonalEdgeStyle;rounded=0;orthogonalLoop=1;jettySize=auto;html=1;exitX=0.5;exitY=1;exitDx=0;exitDy=0;curved=1;" edge="1" parent="1" source="PBj9N_gs_0onL4td7x_k-91" target="PBj9N_gs_0onL4td7x_k-87">
          <mxGeometry relative="1" as="geometry">
            <Array as="points">
              <mxPoint x="863" y="190" />
              <mxPoint x="827" y="190" />
            </Array>
          </mxGeometry>
        </mxCell>
        <mxCell id="PBj9N_gs_0onL4td7x_k-89" style="edgeStyle=orthogonalEdgeStyle;rounded=0;orthogonalLoop=1;jettySize=auto;html=1;exitX=0.5;exitY=1;exitDx=0;exitDy=0;" edge="1" parent="1" source="PBj9N_gs_0onL4td7x_k-91" target="PBj9N_gs_0onL4td7x_k-86">
          <mxGeometry relative="1" as="geometry" />
        </mxCell>
        <mxCell id="PBj9N_gs_0onL4td7x_k-90" style="edgeStyle=orthogonalEdgeStyle;rounded=0;orthogonalLoop=1;jettySize=auto;html=1;exitX=0.5;exitY=1;exitDx=0;exitDy=0;entryX=0.5;entryY=0;entryDx=0;entryDy=0;curved=1;" edge="1" parent="1" source="PBj9N_gs_0onL4td7x_k-91" target="PBj9N_gs_0onL4td7x_k-85">
          <mxGeometry relative="1" as="geometry">
            <Array as="points">
              <mxPoint x="863" y="190" />
              <mxPoint x="897" y="190" />
            </Array>
          </mxGeometry>
        </mxCell>
        <mxCell id="PBj9N_gs_0onL4td7x_k-91" value="11" style="ellipse;aspect=fixed;strokeWidth=2;whiteSpace=wrap;" vertex="1" parent="1">
          <mxGeometry x="850" y="157" width="25" height="25" as="geometry" />
        </mxCell>
        <mxCell id="PBj9N_gs_0onL4td7x_k-92" style="edgeStyle=orthogonalEdgeStyle;rounded=0;orthogonalLoop=1;jettySize=auto;html=1;exitX=1;exitY=0.5;exitDx=0;exitDy=0;entryX=0.5;entryY=0;entryDx=0;entryDy=0;curved=1;" edge="1" parent="1" source="PBj9N_gs_0onL4td7x_k-69" target="PBj9N_gs_0onL4td7x_k-91">
          <mxGeometry relative="1" as="geometry" />
        </mxCell>
        <mxCell id="PBj9N_gs_0onL4td7x_k-94" value="End Condition Met" style="rounded=0;whiteSpace=wrap;html=1;" vertex="1" parent="1">
          <mxGeometry x="-280" y="200" width="120" height="40" as="geometry" />
        </mxCell>
        <mxCell id="PBj9N_gs_0onL4td7x_k-95" value="" style="endArrow=none;html=1;rounded=0;exitX=1;exitY=0;exitDx=0;exitDy=0;" edge="1" parent="1" source="PBj9N_gs_0onL4td7x_k-94">
          <mxGeometry width="50" height="50" relative="1" as="geometry">
            <mxPoint x="-20" y="160" as="sourcePoint" />
            <mxPoint x="920" y="200" as="targetPoint" />
          </mxGeometry>
        </mxCell>
        <mxCell id="PBj9N_gs_0onL4td7x_k-96" value="" style="endArrow=none;html=1;rounded=0;exitX=1;exitY=0;exitDx=0;exitDy=0;" edge="1" parent="1">
          <mxGeometry width="50" height="50" relative="1" as="geometry">
            <mxPoint x="-160" y="240" as="sourcePoint" />
            <mxPoint x="920" y="240" as="targetPoint" />
          </mxGeometry>
        </mxCell>
        <mxCell id="PBj9N_gs_0onL4td7x_k-98" value="Points by which EndPoint could be found" style="rounded=0;whiteSpace=wrap;html=1;" vertex="1" parent="1">
          <mxGeometry x="-280" y="149.5" width="120" height="40" as="geometry" />
        </mxCell>
      </root>
    </mxGraphModel>
  </diagram>
</mxfile>
